<mxfile host="app.diagrams.net" modified="2020-09-21T07:24:53.933Z" agent="5.0 (Macintosh; Intel Mac OS X 10_15_6) AppleWebKit/537.36 (KHTML, like Gecko) Chrome/85.0.4183.102 Safari/537.36" etag="kj17ZvZ7UacA-iuCTbQB" version="13.7.3" type="github">
  <diagram id="yAha6eHHUjteCJXDxwdA" name="第 1 页">
    <mxGraphModel dx="1654" dy="789" grid="1" gridSize="10" guides="1" tooltips="1" connect="1" arrows="1" fold="1" page="1" pageScale="1" pageWidth="827" pageHeight="1169" math="0" shadow="0">
      <root>
        <mxCell id="0" />
        <mxCell id="1" parent="0" />
        <mxCell id="YP20tCKNDytelNwSjhOH-4" style="rounded=0;orthogonalLoop=1;jettySize=auto;html=1;" parent="1" source="YP20tCKNDytelNwSjhOH-1" target="YP20tCKNDytelNwSjhOH-3" edge="1">
          <mxGeometry relative="1" as="geometry" />
        </mxCell>
        <mxCell id="YP20tCKNDytelNwSjhOH-1" value="StreamGraph" style="rounded=0;whiteSpace=wrap;html=1;" parent="1" vertex="1">
          <mxGeometry x="140" y="220" width="120" height="60" as="geometry" />
        </mxCell>
        <mxCell id="YP20tCKNDytelNwSjhOH-3" value="&lt;code style=&quot;font-family: &amp;#34;consolas&amp;#34; , &amp;#34;liberation mono&amp;#34; , &amp;#34;menlo&amp;#34; , &amp;#34;courier&amp;#34; , monospace ; font-size: 14px ; word-break: break-all ; background: rgba(0 , 0 , 0 , 0.05) ; text-shadow: rgb(255 , 255 , 255) 0px 1px ; padding: 0.2em 0px ; border-radius: 3px ; color: rgb(85 , 85 , 85) ; text-align: justify&quot;&gt;org.apache.flink.streaming.api.graph&lt;/code&gt;&lt;span style=&quot;color: rgb(85 , 85 , 85) ; font-family: &amp;#34;lato&amp;#34; , &amp;#34;pingfang sc&amp;#34; , &amp;#34;microsoft yahei&amp;#34; , sans-serif ; font-size: 16px ; text-align: justify ; background-color: rgb(255 , 255 , 255)&quot;&gt;&amp;nbsp;&lt;/span&gt;" style="rounded=1;whiteSpace=wrap;html=1;" parent="1" vertex="1">
          <mxGeometry x="330" y="180" width="330" height="60" as="geometry" />
        </mxCell>
        <mxCell id="YP20tCKNDytelNwSjhOH-5" value="sour1" style="rounded=1;whiteSpace=wrap;html=1;" parent="1" vertex="1">
          <mxGeometry x="170" y="410" width="120" height="60" as="geometry" />
        </mxCell>
        <mxCell id="YP20tCKNDytelNwSjhOH-6" value="source2" style="rounded=1;whiteSpace=wrap;html=1;" parent="1" vertex="1">
          <mxGeometry x="400" y="410" width="120" height="60" as="geometry" />
        </mxCell>
        <mxCell id="YP20tCKNDytelNwSjhOH-7" value="DataStream" style="rounded=1;whiteSpace=wrap;html=1;" parent="1" vertex="1">
          <mxGeometry x="170" y="600" width="120" height="60" as="geometry" />
        </mxCell>
        <mxCell id="YP20tCKNDytelNwSjhOH-8" value="" style="endArrow=classic;html=1;entryX=0.5;entryY=0;entryDx=0;entryDy=0;" parent="1" source="YP20tCKNDytelNwSjhOH-5" target="YP20tCKNDytelNwSjhOH-7" edge="1">
          <mxGeometry width="50" height="50" relative="1" as="geometry">
            <mxPoint x="220" y="510" as="sourcePoint" />
            <mxPoint x="240" y="550" as="targetPoint" />
          </mxGeometry>
        </mxCell>
        <mxCell id="YP20tCKNDytelNwSjhOH-9" value="类型映射" style="edgeLabel;html=1;align=center;verticalAlign=middle;resizable=0;points=[];" parent="YP20tCKNDytelNwSjhOH-8" vertex="1" connectable="0">
          <mxGeometry x="0.0354" y="-2" relative="1" as="geometry">
            <mxPoint as="offset" />
          </mxGeometry>
        </mxCell>
        <mxCell id="YP20tCKNDytelNwSjhOH-10" value="map" style="edgeLabel;html=1;align=center;verticalAlign=middle;resizable=0;points=[];" parent="YP20tCKNDytelNwSjhOH-8" vertex="1" connectable="0">
          <mxGeometry x="0.5511" y="1" relative="1" as="geometry">
            <mxPoint as="offset" />
          </mxGeometry>
        </mxCell>
        <mxCell id="YP20tCKNDytelNwSjhOH-11" value="类型映射" style="endArrow=classic;html=1;exitX=0.5;exitY=1;exitDx=0;exitDy=0;entryX=0.5;entryY=0;entryDx=0;entryDy=0;" parent="1" source="YP20tCKNDytelNwSjhOH-6" target="YP20tCKNDytelNwSjhOH-12" edge="1">
          <mxGeometry width="50" height="50" relative="1" as="geometry">
            <mxPoint x="390" y="580" as="sourcePoint" />
            <mxPoint x="440" y="530" as="targetPoint" />
          </mxGeometry>
        </mxCell>
        <mxCell id="YP20tCKNDytelNwSjhOH-13" value="map" style="edgeLabel;html=1;align=center;verticalAlign=middle;resizable=0;points=[];" parent="YP20tCKNDytelNwSjhOH-11" vertex="1" connectable="0">
          <mxGeometry x="0.566" y="2" relative="1" as="geometry">
            <mxPoint as="offset" />
          </mxGeometry>
        </mxCell>
        <mxCell id="YP20tCKNDytelNwSjhOH-12" value="DataStream" style="rounded=1;whiteSpace=wrap;html=1;" parent="1" vertex="1">
          <mxGeometry x="400" y="600" width="120" height="60" as="geometry" />
        </mxCell>
        <mxCell id="YP20tCKNDytelNwSjhOH-14" value="&lt;span&gt;DataStream&lt;/span&gt;" style="rounded=1;whiteSpace=wrap;html=1;" parent="1" vertex="1">
          <mxGeometry x="240" y="760" width="120" height="60" as="geometry" />
        </mxCell>
        <mxCell id="YP20tCKNDytelNwSjhOH-15" value="" style="endArrow=classic;html=1;exitX=0.5;exitY=1;exitDx=0;exitDy=0;" parent="1" source="YP20tCKNDytelNwSjhOH-7" target="YP20tCKNDytelNwSjhOH-14" edge="1">
          <mxGeometry width="50" height="50" relative="1" as="geometry">
            <mxPoint x="190" y="760" as="sourcePoint" />
            <mxPoint x="240" y="710" as="targetPoint" />
          </mxGeometry>
        </mxCell>
        <mxCell id="YP20tCKNDytelNwSjhOH-16" value="过滤" style="edgeLabel;html=1;align=center;verticalAlign=middle;resizable=0;points=[];" parent="YP20tCKNDytelNwSjhOH-15" vertex="1" connectable="0">
          <mxGeometry x="-0.22" relative="1" as="geometry">
            <mxPoint as="offset" />
          </mxGeometry>
        </mxCell>
        <mxCell id="YP20tCKNDytelNwSjhOH-17" value="fliter" style="edgeLabel;html=1;align=center;verticalAlign=middle;resizable=0;points=[];" parent="YP20tCKNDytelNwSjhOH-15" vertex="1" connectable="0">
          <mxGeometry x="0.331" y="-1" relative="1" as="geometry">
            <mxPoint as="offset" />
          </mxGeometry>
        </mxCell>
        <mxCell id="YP20tCKNDytelNwSjhOH-18" value="" style="endArrow=classic;html=1;entryX=0.5;entryY=0;entryDx=0;entryDy=0;" parent="1" source="YP20tCKNDytelNwSjhOH-12" target="YP20tCKNDytelNwSjhOH-21" edge="1">
          <mxGeometry width="50" height="50" relative="1" as="geometry">
            <mxPoint x="240" y="670" as="sourcePoint" />
            <mxPoint x="440" y="750" as="targetPoint" />
          </mxGeometry>
        </mxCell>
        <mxCell id="YP20tCKNDytelNwSjhOH-19" value="过滤" style="edgeLabel;html=1;align=center;verticalAlign=middle;resizable=0;points=[];" parent="YP20tCKNDytelNwSjhOH-18" vertex="1" connectable="0">
          <mxGeometry x="-0.22" relative="1" as="geometry">
            <mxPoint as="offset" />
          </mxGeometry>
        </mxCell>
        <mxCell id="YP20tCKNDytelNwSjhOH-20" value="fliter" style="edgeLabel;html=1;align=center;verticalAlign=middle;resizable=0;points=[];" parent="YP20tCKNDytelNwSjhOH-18" vertex="1" connectable="0">
          <mxGeometry x="0.331" y="-1" relative="1" as="geometry">
            <mxPoint as="offset" />
          </mxGeometry>
        </mxCell>
        <mxCell id="YP20tCKNDytelNwSjhOH-21" value="&lt;span&gt;DataStream&lt;/span&gt;" style="rounded=1;whiteSpace=wrap;html=1;" parent="1" vertex="1">
          <mxGeometry x="414" y="760" width="120" height="60" as="geometry" />
        </mxCell>
        <mxCell id="YP20tCKNDytelNwSjhOH-27" value="分组" style="edgeStyle=none;rounded=0;orthogonalLoop=1;jettySize=auto;html=1;exitX=0.5;exitY=1;exitDx=0;exitDy=0;" parent="1" source="YP20tCKNDytelNwSjhOH-22" target="YP20tCKNDytelNwSjhOH-26" edge="1">
          <mxGeometry relative="1" as="geometry" />
        </mxCell>
        <mxCell id="YP20tCKNDytelNwSjhOH-22" value="connect" style="rounded=1;whiteSpace=wrap;html=1;" parent="1" vertex="1">
          <mxGeometry x="340" y="910" width="120" height="60" as="geometry" />
        </mxCell>
        <mxCell id="YP20tCKNDytelNwSjhOH-24" value="" style="endArrow=classic;html=1;exitX=0.5;exitY=1;exitDx=0;exitDy=0;entryX=0.5;entryY=0;entryDx=0;entryDy=0;" parent="1" source="YP20tCKNDytelNwSjhOH-14" target="YP20tCKNDytelNwSjhOH-22" edge="1">
          <mxGeometry width="50" height="50" relative="1" as="geometry">
            <mxPoint x="390" y="850" as="sourcePoint" />
            <mxPoint x="440" y="800" as="targetPoint" />
          </mxGeometry>
        </mxCell>
        <mxCell id="YP20tCKNDytelNwSjhOH-25" value="" style="endArrow=classic;html=1;exitX=0.5;exitY=1;exitDx=0;exitDy=0;" parent="1" source="YP20tCKNDytelNwSjhOH-21" edge="1">
          <mxGeometry width="50" height="50" relative="1" as="geometry">
            <mxPoint x="390" y="850" as="sourcePoint" />
            <mxPoint x="400" y="910" as="targetPoint" />
          </mxGeometry>
        </mxCell>
        <mxCell id="YP20tCKNDytelNwSjhOH-29" value="窗口" style="edgeStyle=none;rounded=0;orthogonalLoop=1;jettySize=auto;html=1;" parent="1" source="YP20tCKNDytelNwSjhOH-26" target="YP20tCKNDytelNwSjhOH-28" edge="1">
          <mxGeometry relative="1" as="geometry" />
        </mxCell>
        <mxCell id="YP20tCKNDytelNwSjhOH-26" value="keyedStream" style="rounded=1;whiteSpace=wrap;html=1;" parent="1" vertex="1">
          <mxGeometry x="340" y="1030" width="120" height="60" as="geometry" />
        </mxCell>
        <mxCell id="YP20tCKNDytelNwSjhOH-31" value="聚合" style="edgeStyle=none;rounded=0;orthogonalLoop=1;jettySize=auto;html=1;exitX=0.5;exitY=1;exitDx=0;exitDy=0;entryX=0.5;entryY=0;entryDx=0;entryDy=0;" parent="1" source="YP20tCKNDytelNwSjhOH-28" target="YP20tCKNDytelNwSjhOH-30" edge="1">
          <mxGeometry relative="1" as="geometry" />
        </mxCell>
        <mxCell id="YP20tCKNDytelNwSjhOH-28" value="WindowStream" style="rounded=1;whiteSpace=wrap;html=1;" parent="1" vertex="1">
          <mxGeometry x="340" y="1150" width="120" height="60" as="geometry" />
        </mxCell>
        <mxCell id="YP20tCKNDytelNwSjhOH-33" value="" style="edgeStyle=none;rounded=0;orthogonalLoop=1;jettySize=auto;html=1;" parent="1" source="YP20tCKNDytelNwSjhOH-30" target="YP20tCKNDytelNwSjhOH-32" edge="1">
          <mxGeometry relative="1" as="geometry" />
        </mxCell>
        <mxCell id="YP20tCKNDytelNwSjhOH-30" value="dataStream" style="rounded=1;whiteSpace=wrap;html=1;" parent="1" vertex="1">
          <mxGeometry x="340" y="1260" width="120" height="60" as="geometry" />
        </mxCell>
        <mxCell id="YP20tCKNDytelNwSjhOH-32" value="sink" style="rounded=1;whiteSpace=wrap;html=1;" parent="1" vertex="1">
          <mxGeometry x="340" y="1400" width="120" height="60" as="geometry" />
        </mxCell>
        <mxCell id="YP20tCKNDytelNwSjhOH-35" value="DataStream" style="rounded=0;whiteSpace=wrap;html=1;" parent="1" vertex="1">
          <mxGeometry x="1160" y="350" width="120" height="60" as="geometry" />
        </mxCell>
        <mxCell id="YP20tCKNDytelNwSjhOH-36" value="&lt;meta charset=&quot;utf-8&quot;&gt;&lt;span style=&quot;color: rgb(0, 0, 0); font-family: helvetica; font-size: 12px; font-style: normal; font-weight: 400; letter-spacing: normal; text-align: center; text-indent: 0px; text-transform: none; word-spacing: 0px; background-color: rgb(248, 249, 250); display: inline; float: none;&quot;&gt;数据流类型&lt;/span&gt;" style="text;whiteSpace=wrap;html=1;" parent="1" vertex="1">
          <mxGeometry x="960" y="240" width="90" height="30" as="geometry" />
        </mxCell>
        <mxCell id="YP20tCKNDytelNwSjhOH-38" value="" style="endArrow=classic;html=1;exitX=0.25;exitY=0;exitDx=0;exitDy=0;entryX=0.75;entryY=0;entryDx=0;entryDy=0;" parent="1" source="YP20tCKNDytelNwSjhOH-35" target="YP20tCKNDytelNwSjhOH-35" edge="1">
          <mxGeometry width="50" height="50" relative="1" as="geometry">
            <mxPoint x="1180" y="470" as="sourcePoint" />
            <mxPoint x="1230" y="420" as="targetPoint" />
            <Array as="points">
              <mxPoint x="1180" y="110" />
              <mxPoint x="1220" y="100" />
              <mxPoint x="1260" y="110" />
            </Array>
          </mxGeometry>
        </mxCell>
        <mxCell id="YP20tCKNDytelNwSjhOH-39" value="union" style="edgeLabel;html=1;align=center;verticalAlign=middle;resizable=0;points=[];" parent="YP20tCKNDytelNwSjhOH-38" vertex="1" connectable="0">
          <mxGeometry x="-0.6457" y="-1" relative="1" as="geometry">
            <mxPoint as="offset" />
          </mxGeometry>
        </mxCell>
        <mxCell id="YP20tCKNDytelNwSjhOH-52" value="partitionCustom" style="edgeLabel;html=1;align=center;verticalAlign=middle;resizable=0;points=[];" parent="YP20tCKNDytelNwSjhOH-38" vertex="1" connectable="0">
          <mxGeometry x="-0.4588" y="-1" relative="1" as="geometry">
            <mxPoint as="offset" />
          </mxGeometry>
        </mxCell>
        <mxCell id="YP20tCKNDytelNwSjhOH-56" value="shuffle" style="edgeLabel;html=1;align=center;verticalAlign=middle;resizable=0;points=[];" parent="YP20tCKNDytelNwSjhOH-38" vertex="1" connectable="0">
          <mxGeometry x="-0.2995" relative="1" as="geometry">
            <mxPoint as="offset" />
          </mxGeometry>
        </mxCell>
        <mxCell id="YP20tCKNDytelNwSjhOH-57" value="forward" style="edgeLabel;html=1;align=center;verticalAlign=middle;resizable=0;points=[];" parent="YP20tCKNDytelNwSjhOH-38" vertex="1" connectable="0">
          <mxGeometry x="0.2891" y="-2" relative="1" as="geometry">
            <mxPoint as="offset" />
          </mxGeometry>
        </mxCell>
        <mxCell id="YP20tCKNDytelNwSjhOH-58" value="rebalance" style="edgeLabel;html=1;align=center;verticalAlign=middle;resizable=0;points=[];" parent="YP20tCKNDytelNwSjhOH-38" vertex="1" connectable="0">
          <mxGeometry x="0.4378" y="2" relative="1" as="geometry">
            <mxPoint as="offset" />
          </mxGeometry>
        </mxCell>
        <mxCell id="YP20tCKNDytelNwSjhOH-59" value="rescale" style="edgeLabel;html=1;align=center;verticalAlign=middle;resizable=0;points=[];" parent="YP20tCKNDytelNwSjhOH-38" vertex="1" connectable="0">
          <mxGeometry x="0.5305" relative="1" as="geometry">
            <mxPoint x="1" as="offset" />
          </mxGeometry>
        </mxCell>
        <mxCell id="YP20tCKNDytelNwSjhOH-60" value="global" style="edgeLabel;html=1;align=center;verticalAlign=middle;resizable=0;points=[];" parent="YP20tCKNDytelNwSjhOH-38" vertex="1" connectable="0">
          <mxGeometry x="0.6411" y="-2" relative="1" as="geometry">
            <mxPoint as="offset" />
          </mxGeometry>
        </mxCell>
        <mxCell id="YP20tCKNDytelNwSjhOH-65" value="map" style="edgeLabel;html=1;align=center;verticalAlign=middle;resizable=0;points=[];" parent="YP20tCKNDytelNwSjhOH-38" vertex="1" connectable="0">
          <mxGeometry x="0.7403" y="1" relative="1" as="geometry">
            <mxPoint as="offset" />
          </mxGeometry>
        </mxCell>
        <mxCell id="YP20tCKNDytelNwSjhOH-66" value="flatmap" style="edgeLabel;html=1;align=center;verticalAlign=middle;resizable=0;points=[];" parent="YP20tCKNDytelNwSjhOH-38" vertex="1" connectable="0">
          <mxGeometry x="0.8255" y="2" relative="1" as="geometry">
            <mxPoint as="offset" />
          </mxGeometry>
        </mxCell>
        <mxCell id="YP20tCKNDytelNwSjhOH-67" value="process" style="edgeLabel;html=1;align=center;verticalAlign=middle;resizable=0;points=[];" parent="YP20tCKNDytelNwSjhOH-38" vertex="1" connectable="0">
          <mxGeometry x="0.9" y="3" relative="1" as="geometry">
            <mxPoint as="offset" />
          </mxGeometry>
        </mxCell>
        <mxCell id="YP20tCKNDytelNwSjhOH-68" value="filter" style="edgeLabel;html=1;align=center;verticalAlign=middle;resizable=0;points=[];" parent="YP20tCKNDytelNwSjhOH-38" vertex="1" connectable="0">
          <mxGeometry x="-0.7327" y="4" relative="1" as="geometry">
            <mxPoint as="offset" />
          </mxGeometry>
        </mxCell>
        <mxCell id="YP20tCKNDytelNwSjhOH-69" value="project" style="edgeLabel;html=1;align=center;verticalAlign=middle;resizable=0;points=[];" parent="YP20tCKNDytelNwSjhOH-38" vertex="1" connectable="0">
          <mxGeometry x="-0.8186" relative="1" as="geometry">
            <mxPoint as="offset" />
          </mxGeometry>
        </mxCell>
        <mxCell id="YP20tCKNDytelNwSjhOH-81" value="assignTimestamps" style="edgeLabel;html=1;align=center;verticalAlign=middle;resizable=0;points=[];" parent="YP20tCKNDytelNwSjhOH-38" vertex="1" connectable="0">
          <mxGeometry x="-0.9039" y="1" relative="1" as="geometry">
            <mxPoint x="-17.88" as="offset" />
          </mxGeometry>
        </mxCell>
        <mxCell id="YP20tCKNDytelNwSjhOH-40" value="SplitStream" style="rounded=0;whiteSpace=wrap;html=1;" parent="1" vertex="1">
          <mxGeometry x="1500" y="300" width="120" height="60" as="geometry" />
        </mxCell>
        <mxCell id="YP20tCKNDytelNwSjhOH-41" value="" style="endArrow=classic;html=1;exitX=1;exitY=0.5;exitDx=0;exitDy=0;entryX=0;entryY=0.25;entryDx=0;entryDy=0;" parent="1" source="YP20tCKNDytelNwSjhOH-35" target="YP20tCKNDytelNwSjhOH-40" edge="1">
          <mxGeometry width="50" height="50" relative="1" as="geometry">
            <mxPoint x="1350" y="470" as="sourcePoint" />
            <mxPoint x="1400" y="420" as="targetPoint" />
          </mxGeometry>
        </mxCell>
        <mxCell id="YP20tCKNDytelNwSjhOH-42" value="split" style="edgeLabel;html=1;align=center;verticalAlign=middle;resizable=0;points=[];" parent="YP20tCKNDytelNwSjhOH-41" vertex="1" connectable="0">
          <mxGeometry x="-0.1916" relative="1" as="geometry">
            <mxPoint as="offset" />
          </mxGeometry>
        </mxCell>
        <mxCell id="YP20tCKNDytelNwSjhOH-43" value="ConnectedStreams" style="rounded=0;whiteSpace=wrap;html=1;" parent="1" vertex="1">
          <mxGeometry x="1490" y="440" width="120" height="60" as="geometry" />
        </mxCell>
        <mxCell id="YP20tCKNDytelNwSjhOH-44" value="" style="endArrow=classic;html=1;exitX=1;exitY=0.5;exitDx=0;exitDy=0;entryX=0;entryY=0.5;entryDx=0;entryDy=0;" parent="1" source="YP20tCKNDytelNwSjhOH-35" target="YP20tCKNDytelNwSjhOH-43" edge="1">
          <mxGeometry width="50" height="50" relative="1" as="geometry">
            <mxPoint x="1290" y="390" as="sourcePoint" />
            <mxPoint x="1510" y="325" as="targetPoint" />
          </mxGeometry>
        </mxCell>
        <mxCell id="YP20tCKNDytelNwSjhOH-45" value="connect" style="edgeLabel;html=1;align=center;verticalAlign=middle;resizable=0;points=[];" parent="YP20tCKNDytelNwSjhOH-44" vertex="1" connectable="0">
          <mxGeometry x="-0.1916" relative="1" as="geometry">
            <mxPoint as="offset" />
          </mxGeometry>
        </mxCell>
        <mxCell id="YP20tCKNDytelNwSjhOH-46" value="BroadcastConnectedStream" style="rounded=0;whiteSpace=wrap;html=1;" parent="1" vertex="1">
          <mxGeometry x="1490" y="555" width="120" height="60" as="geometry" />
        </mxCell>
        <mxCell id="YP20tCKNDytelNwSjhOH-47" value="" style="endArrow=classic;html=1;exitX=1;exitY=0.75;exitDx=0;exitDy=0;" parent="1" source="YP20tCKNDytelNwSjhOH-35" edge="1">
          <mxGeometry width="50" height="50" relative="1" as="geometry">
            <mxPoint x="1300" y="410" as="sourcePoint" />
            <mxPoint x="1490" y="600" as="targetPoint" />
          </mxGeometry>
        </mxCell>
        <mxCell id="YP20tCKNDytelNwSjhOH-48" value="connect" style="edgeLabel;html=1;align=center;verticalAlign=middle;resizable=0;points=[];" parent="YP20tCKNDytelNwSjhOH-47" vertex="1" connectable="0">
          <mxGeometry x="-0.1916" relative="1" as="geometry">
            <mxPoint as="offset" />
          </mxGeometry>
        </mxCell>
        <mxCell id="YP20tCKNDytelNwSjhOH-49" value="KeyedStream" style="rounded=0;whiteSpace=wrap;html=1;" parent="1" vertex="1">
          <mxGeometry x="1410" y="690" width="120" height="60" as="geometry" />
        </mxCell>
        <mxCell id="YP20tCKNDytelNwSjhOH-50" value="" style="endArrow=classic;html=1;exitX=1;exitY=0.75;exitDx=0;exitDy=0;entryX=0;entryY=0.5;entryDx=0;entryDy=0;" parent="1" target="YP20tCKNDytelNwSjhOH-49" edge="1">
          <mxGeometry width="50" height="50" relative="1" as="geometry">
            <mxPoint x="1230" y="410" as="sourcePoint" />
            <mxPoint x="1440" y="615" as="targetPoint" />
          </mxGeometry>
        </mxCell>
        <mxCell id="YP20tCKNDytelNwSjhOH-51" value="keyBy" style="edgeLabel;html=1;align=center;verticalAlign=middle;resizable=0;points=[];" parent="YP20tCKNDytelNwSjhOH-50" vertex="1" connectable="0">
          <mxGeometry x="-0.1916" relative="1" as="geometry">
            <mxPoint as="offset" />
          </mxGeometry>
        </mxCell>
        <mxCell id="YP20tCKNDytelNwSjhOH-53" value="BroadcastStream" style="rounded=0;whiteSpace=wrap;html=1;" parent="1" vertex="1">
          <mxGeometry x="1210" y="700" width="120" height="60" as="geometry" />
        </mxCell>
        <mxCell id="YP20tCKNDytelNwSjhOH-54" value="" style="endArrow=classic;html=1;exitX=1;exitY=0.75;exitDx=0;exitDy=0;" parent="1" target="YP20tCKNDytelNwSjhOH-53" edge="1">
          <mxGeometry width="50" height="50" relative="1" as="geometry">
            <mxPoint x="1190" y="410" as="sourcePoint" />
            <mxPoint x="1370" y="720" as="targetPoint" />
          </mxGeometry>
        </mxCell>
        <mxCell id="YP20tCKNDytelNwSjhOH-55" value="broadcast" style="edgeLabel;html=1;align=center;verticalAlign=middle;resizable=0;points=[];" parent="YP20tCKNDytelNwSjhOH-54" vertex="1" connectable="0">
          <mxGeometry x="-0.1916" relative="1" as="geometry">
            <mxPoint as="offset" />
          </mxGeometry>
        </mxCell>
        <mxCell id="YP20tCKNDytelNwSjhOH-61" value="IterativeStream" style="rounded=0;whiteSpace=wrap;html=1;" parent="1" vertex="1">
          <mxGeometry x="1000" y="700" width="120" height="60" as="geometry" />
        </mxCell>
        <mxCell id="YP20tCKNDytelNwSjhOH-63" value="" style="endArrow=classic;html=1;exitX=0.117;exitY=1.05;exitDx=0;exitDy=0;exitPerimeter=0;entryX=0.5;entryY=0;entryDx=0;entryDy=0;" parent="1" source="YP20tCKNDytelNwSjhOH-35" target="YP20tCKNDytelNwSjhOH-61" edge="1">
          <mxGeometry width="50" height="50" relative="1" as="geometry">
            <mxPoint x="1200" y="420" as="sourcePoint" />
            <mxPoint x="1272.5" y="710" as="targetPoint" />
          </mxGeometry>
        </mxCell>
        <mxCell id="YP20tCKNDytelNwSjhOH-64" value="iterate" style="edgeLabel;html=1;align=center;verticalAlign=middle;resizable=0;points=[];" parent="YP20tCKNDytelNwSjhOH-63" vertex="1" connectable="0">
          <mxGeometry x="-0.1916" relative="1" as="geometry">
            <mxPoint as="offset" />
          </mxGeometry>
        </mxCell>
        <mxCell id="YP20tCKNDytelNwSjhOH-70" value="CoGroupStream" style="rounded=0;whiteSpace=wrap;html=1;" parent="1" vertex="1">
          <mxGeometry x="860" y="585" width="120" height="60" as="geometry" />
        </mxCell>
        <mxCell id="YP20tCKNDytelNwSjhOH-71" value="" style="endArrow=classic;html=1;exitX=0;exitY=0.75;exitDx=0;exitDy=0;entryX=0.75;entryY=0;entryDx=0;entryDy=0;" parent="1" source="YP20tCKNDytelNwSjhOH-35" target="YP20tCKNDytelNwSjhOH-70" edge="1">
          <mxGeometry width="50" height="50" relative="1" as="geometry">
            <mxPoint x="1330" y="510" as="sourcePoint" />
            <mxPoint x="1380" y="460" as="targetPoint" />
          </mxGeometry>
        </mxCell>
        <mxCell id="YP20tCKNDytelNwSjhOH-72" value="coGroup" style="edgeLabel;html=1;align=center;verticalAlign=middle;resizable=0;points=[];" parent="YP20tCKNDytelNwSjhOH-71" vertex="1" connectable="0">
          <mxGeometry x="0.0893" y="2" relative="1" as="geometry">
            <mxPoint as="offset" />
          </mxGeometry>
        </mxCell>
        <mxCell id="YP20tCKNDytelNwSjhOH-73" value="JoinedStream" style="rounded=0;whiteSpace=wrap;html=1;" parent="1" vertex="1">
          <mxGeometry x="770" y="480" width="120" height="60" as="geometry" />
        </mxCell>
        <mxCell id="YP20tCKNDytelNwSjhOH-74" value="" style="endArrow=classic;html=1;exitX=-0.017;exitY=0.383;exitDx=0;exitDy=0;entryX=1;entryY=0.5;entryDx=0;entryDy=0;exitPerimeter=0;" parent="1" source="YP20tCKNDytelNwSjhOH-35" target="YP20tCKNDytelNwSjhOH-73" edge="1">
          <mxGeometry width="50" height="50" relative="1" as="geometry">
            <mxPoint x="1170" y="405" as="sourcePoint" />
            <mxPoint x="960" y="595" as="targetPoint" />
          </mxGeometry>
        </mxCell>
        <mxCell id="YP20tCKNDytelNwSjhOH-75" value="join" style="edgeLabel;html=1;align=center;verticalAlign=middle;resizable=0;points=[];" parent="YP20tCKNDytelNwSjhOH-74" vertex="1" connectable="0">
          <mxGeometry x="0.0893" y="2" relative="1" as="geometry">
            <mxPoint as="offset" />
          </mxGeometry>
        </mxCell>
        <mxCell id="YP20tCKNDytelNwSjhOH-76" value="AllWindowedStream" style="rounded=0;whiteSpace=wrap;html=1;" parent="1" vertex="1">
          <mxGeometry x="760" y="380" width="120" height="60" as="geometry" />
        </mxCell>
        <mxCell id="YP20tCKNDytelNwSjhOH-77" value="" style="endArrow=classic;html=1;exitX=0;exitY=0.25;exitDx=0;exitDy=0;entryX=1;entryY=0.5;entryDx=0;entryDy=0;" parent="1" source="YP20tCKNDytelNwSjhOH-35" target="YP20tCKNDytelNwSjhOH-76" edge="1">
          <mxGeometry width="50" height="50" relative="1" as="geometry">
            <mxPoint x="1167.96" y="382.98" as="sourcePoint" />
            <mxPoint x="900" y="520" as="targetPoint" />
          </mxGeometry>
        </mxCell>
        <mxCell id="YP20tCKNDytelNwSjhOH-78" value="timeWindowAll" style="edgeLabel;html=1;align=center;verticalAlign=middle;resizable=0;points=[];" parent="YP20tCKNDytelNwSjhOH-77" vertex="1" connectable="0">
          <mxGeometry x="0.0893" y="2" relative="1" as="geometry">
            <mxPoint x="31.73" y="-11.41" as="offset" />
          </mxGeometry>
        </mxCell>
        <mxCell id="YP20tCKNDytelNwSjhOH-79" value="countWindowAll" style="edgeLabel;html=1;align=center;verticalAlign=middle;resizable=0;points=[];" parent="YP20tCKNDytelNwSjhOH-77" vertex="1" connectable="0">
          <mxGeometry x="0.6279" y="-1" relative="1" as="geometry">
            <mxPoint x="8.23" as="offset" />
          </mxGeometry>
        </mxCell>
        <mxCell id="YP20tCKNDytelNwSjhOH-80" value="WindowAll" style="edgeLabel;html=1;align=center;verticalAlign=middle;resizable=0;points=[];" parent="YP20tCKNDytelNwSjhOH-77" vertex="1" connectable="0">
          <mxGeometry x="-0.5407" y="-4" relative="1" as="geometry">
            <mxPoint x="24.81" as="offset" />
          </mxGeometry>
        </mxCell>
        <mxCell id="YP20tCKNDytelNwSjhOH-93" value="source2" style="rounded=1;whiteSpace=wrap;html=1;" parent="1" vertex="1">
          <mxGeometry x="600" y="410" width="120" height="60" as="geometry" />
        </mxCell>
        <mxCell id="YP20tCKNDytelNwSjhOH-94" value="DataStream" style="rounded=1;whiteSpace=wrap;html=1;" parent="1" vertex="1">
          <mxGeometry x="610" y="600" width="120" height="60" as="geometry" />
        </mxCell>
        <mxCell id="YP20tCKNDytelNwSjhOH-95" value="" style="endArrow=classic;html=1;entryX=0.4;entryY=-0.033;entryDx=0;entryDy=0;entryPerimeter=0;" parent="1" source="YP20tCKNDytelNwSjhOH-93" target="YP20tCKNDytelNwSjhOH-94" edge="1">
          <mxGeometry width="50" height="50" relative="1" as="geometry">
            <mxPoint x="630" y="590" as="sourcePoint" />
            <mxPoint x="680" y="540" as="targetPoint" />
          </mxGeometry>
        </mxCell>
        <mxCell id="YP20tCKNDytelNwSjhOH-96" value="" style="endArrow=classic;html=1;exitX=0.417;exitY=1.017;exitDx=0;exitDy=0;exitPerimeter=0;" parent="1" source="YP20tCKNDytelNwSjhOH-94" edge="1">
          <mxGeometry width="50" height="50" relative="1" as="geometry">
            <mxPoint x="610" y="770" as="sourcePoint" />
            <mxPoint x="540" y="780" as="targetPoint" />
          </mxGeometry>
        </mxCell>
        <mxCell id="YP20tCKNDytelNwSjhOH-98" value="sink" style="rounded=1;whiteSpace=wrap;html=1;" parent="1" vertex="1">
          <mxGeometry x="80" y="1400" width="120" height="60" as="geometry" />
        </mxCell>
        <mxCell id="YP20tCKNDytelNwSjhOH-99" value="" style="endArrow=classic;html=1;exitX=0;exitY=0.75;exitDx=0;exitDy=0;" parent="1" source="YP20tCKNDytelNwSjhOH-30" target="YP20tCKNDytelNwSjhOH-98" edge="1">
          <mxGeometry width="50" height="50" relative="1" as="geometry">
            <mxPoint x="430" y="1250" as="sourcePoint" />
            <mxPoint x="480" y="1200" as="targetPoint" />
          </mxGeometry>
        </mxCell>
        <mxCell id="YP20tCKNDytelNwSjhOH-102" value="FlinkDAG总体架构" style="rounded=0;whiteSpace=wrap;html=1;" parent="1" vertex="1">
          <mxGeometry x="90" y="1694" width="120" height="60" as="geometry" />
        </mxCell>
        <mxCell id="YP20tCKNDytelNwSjhOH-103" value="" style="rounded=0;whiteSpace=wrap;html=1;fillColor=#fff2cc;strokeColor=#d6b656;" parent="1" vertex="1">
          <mxGeometry x="230" y="1790" width="140" height="280" as="geometry" />
        </mxCell>
        <mxCell id="YP20tCKNDytelNwSjhOH-104" value="StreamAPI" style="rounded=1;whiteSpace=wrap;html=1;fillColor=#dae8fc;strokeColor=#6c8ebf;" parent="1" vertex="1">
          <mxGeometry x="240" y="1830" width="120" height="60" as="geometry" />
        </mxCell>
        <mxCell id="YP20tCKNDytelNwSjhOH-105" value="BatchAPI" style="rounded=1;whiteSpace=wrap;html=1;fillColor=#dae8fc;strokeColor=#6c8ebf;" parent="1" vertex="1">
          <mxGeometry x="240" y="1950" width="120" height="60" as="geometry" />
        </mxCell>
        <mxCell id="YP20tCKNDytelNwSjhOH-106" value="" style="rounded=0;whiteSpace=wrap;html=1;fillColor=#fff2cc;strokeColor=#d6b656;" parent="1" vertex="1">
          <mxGeometry x="460" y="1790" width="140" height="280" as="geometry" />
        </mxCell>
        <mxCell id="YP20tCKNDytelNwSjhOH-107" value="StreamGraph" style="rounded=1;whiteSpace=wrap;html=1;fillColor=#dae8fc;strokeColor=#6c8ebf;" parent="1" vertex="1">
          <mxGeometry x="470" y="1830" width="120" height="60" as="geometry" />
        </mxCell>
        <mxCell id="YP20tCKNDytelNwSjhOH-108" value="OptmizedGraph" style="rounded=1;whiteSpace=wrap;html=1;fillColor=#dae8fc;strokeColor=#6c8ebf;" parent="1" vertex="1">
          <mxGeometry x="469" y="1950" width="120" height="60" as="geometry" />
        </mxCell>
        <mxCell id="YP20tCKNDytelNwSjhOH-109" value="" style="rounded=0;whiteSpace=wrap;html=1;fillColor=#fff2cc;strokeColor=#d6b656;" parent="1" vertex="1">
          <mxGeometry x="700" y="1850" width="130" height="120" as="geometry" />
        </mxCell>
        <mxCell id="YP20tCKNDytelNwSjhOH-120" value="" style="edgeStyle=orthogonalEdgeStyle;curved=1;rounded=0;orthogonalLoop=1;jettySize=auto;html=1;" parent="1" source="YP20tCKNDytelNwSjhOH-110" edge="1">
          <mxGeometry relative="1" as="geometry">
            <mxPoint x="890" y="1910" as="targetPoint" />
          </mxGeometry>
        </mxCell>
        <mxCell id="YP20tCKNDytelNwSjhOH-110" value="JobGraph" style="rounded=1;whiteSpace=wrap;html=1;fillColor=#dae8fc;strokeColor=#6c8ebf;" parent="1" vertex="1">
          <mxGeometry x="705" y="1880" width="120" height="60" as="geometry" />
        </mxCell>
        <mxCell id="YP20tCKNDytelNwSjhOH-112" value="" style="rounded=0;whiteSpace=wrap;html=1;fillColor=#fff2cc;strokeColor=#d6b656;" parent="1" vertex="1">
          <mxGeometry x="891" y="1851" width="130" height="120" as="geometry" />
        </mxCell>
        <mxCell id="YP20tCKNDytelNwSjhOH-113" value="ExecutionGraph" style="rounded=1;whiteSpace=wrap;html=1;fillColor=#dae8fc;strokeColor=#6c8ebf;" parent="1" vertex="1">
          <mxGeometry x="896" y="1880" width="120" height="60" as="geometry" />
        </mxCell>
        <mxCell id="YP20tCKNDytelNwSjhOH-114" value="" style="endArrow=classic;html=1;entryX=0;entryY=0.25;entryDx=0;entryDy=0;exitX=1;exitY=0.25;exitDx=0;exitDy=0;" parent="1" source="YP20tCKNDytelNwSjhOH-103" target="YP20tCKNDytelNwSjhOH-106" edge="1">
          <mxGeometry width="50" height="50" relative="1" as="geometry">
            <mxPoint x="380" y="1860" as="sourcePoint" />
            <mxPoint x="680" y="1790" as="targetPoint" />
          </mxGeometry>
        </mxCell>
        <mxCell id="YP20tCKNDytelNwSjhOH-115" value="" style="endArrow=classic;html=1;entryX=0;entryY=0.75;entryDx=0;entryDy=0;exitX=1;exitY=0.75;exitDx=0;exitDy=0;" parent="1" source="YP20tCKNDytelNwSjhOH-103" target="YP20tCKNDytelNwSjhOH-106" edge="1">
          <mxGeometry width="50" height="50" relative="1" as="geometry">
            <mxPoint x="390" y="1870" as="sourcePoint" />
            <mxPoint x="470" y="1870" as="targetPoint" />
          </mxGeometry>
        </mxCell>
        <mxCell id="YP20tCKNDytelNwSjhOH-116" value="" style="endArrow=classic;html=1;entryX=0;entryY=0.5;entryDx=0;entryDy=0;exitX=1;exitY=0.25;exitDx=0;exitDy=0;" parent="1" source="YP20tCKNDytelNwSjhOH-106" target="YP20tCKNDytelNwSjhOH-109" edge="1">
          <mxGeometry width="50" height="50" relative="1" as="geometry">
            <mxPoint x="380" y="1870" as="sourcePoint" />
            <mxPoint x="470" y="1870" as="targetPoint" />
          </mxGeometry>
        </mxCell>
        <mxCell id="YP20tCKNDytelNwSjhOH-117" value="" style="endArrow=classic;html=1;exitX=1;exitY=0.75;exitDx=0;exitDy=0;entryX=0;entryY=0.642;entryDx=0;entryDy=0;entryPerimeter=0;" parent="1" source="YP20tCKNDytelNwSjhOH-106" target="YP20tCKNDytelNwSjhOH-109" edge="1">
          <mxGeometry width="50" height="50" relative="1" as="geometry">
            <mxPoint x="610" y="1870" as="sourcePoint" />
            <mxPoint x="694" y="1927" as="targetPoint" />
          </mxGeometry>
        </mxCell>
        <mxCell id="YP20tCKNDytelNwSjhOH-121" value="&lt;font style=&quot;font-size: 18px&quot;&gt;API&lt;/font&gt;" style="text;html=1;align=center;verticalAlign=middle;resizable=0;points=[];autosize=1;" parent="1" vertex="1">
          <mxGeometry x="275" y="2090" width="40" height="20" as="geometry" />
        </mxCell>
        <mxCell id="YP20tCKNDytelNwSjhOH-122" value="&lt;font style=&quot;font-size: 18px&quot;&gt;静态拓扑&lt;/font&gt;" style="text;html=1;align=center;verticalAlign=middle;resizable=0;points=[];autosize=1;" parent="1" vertex="1">
          <mxGeometry x="485" y="2090" width="90" height="20" as="geometry" />
        </mxCell>
        <mxCell id="YP20tCKNDytelNwSjhOH-123" value="&lt;font style=&quot;font-size: 18px&quot;&gt;DAG&lt;/font&gt;" style="text;html=1;align=center;verticalAlign=middle;resizable=0;points=[];autosize=1;" parent="1" vertex="1">
          <mxGeometry x="740" y="1990" width="50" height="20" as="geometry" />
        </mxCell>
        <mxCell id="YP20tCKNDytelNwSjhOH-124" value="&lt;font style=&quot;font-size: 18px&quot;&gt;统一调度&lt;/font&gt;" style="text;html=1;align=center;verticalAlign=middle;resizable=0;points=[];autosize=1;" parent="1" vertex="1">
          <mxGeometry x="911" y="1990" width="90" height="20" as="geometry" />
        </mxCell>
        <mxCell id="YP20tCKNDytelNwSjhOH-125" value="&lt;p&gt;&lt;/p&gt;&lt;div style=&quot;text-align: left&quot;&gt;&lt;font style=&quot;font-size: 16px&quot;&gt;对于流作业，&lt;/font&gt;&lt;span style=&quot;font-size: 16px ; color: rgba(0 , 0 , 0 , 0.75) ; background-color: rgb(255 , 255 , 255)&quot;&gt;用户程序通过调用StreamExecutionEnvironment.execute触发StreamGraphGenerator生成StreamGraph。&lt;/span&gt;&lt;br&gt;&lt;span style=&quot;font-size: 16px&quot;&gt;对于批作业，用户程序通过OptimizerPlanEnvironment.execute触发Optimizer生成OptimizerPlan&lt;/span&gt;&lt;br&gt;&lt;/div&gt;&lt;p&gt;&lt;/p&gt;&lt;ul style=&quot;box-sizing: border-box ; outline: 0px ; margin: 0px 0px 24px ; padding: 0px ; list-style: none ; font-family: &amp;#34;microsoft yahei&amp;#34; , &amp;#34;sf pro display&amp;#34; , &amp;#34;roboto&amp;#34; , &amp;#34;noto&amp;#34; , &amp;#34;arial&amp;#34; , &amp;#34;pingfang sc&amp;#34; , sans-serif ; font-size: 18px ; overflow-wrap: break-word ; color: rgba(0 , 0 , 0 , 0.75) ; background-color: rgb(255 , 255 , 255)&quot;&gt;&lt;li&gt;&lt;/li&gt;&lt;/ul&gt;" style="text;html=1;align=center;verticalAlign=middle;resizable=0;points=[];autosize=1;" parent="1" vertex="1">
          <mxGeometry x="230" y="2170" width="860" height="70" as="geometry" />
        </mxCell>
        <mxCell id="YP20tCKNDytelNwSjhOH-126" value="&lt;font style=&quot;font-size: 18px&quot;&gt;API&lt;/font&gt;" style="rounded=0;whiteSpace=wrap;html=1;fillColor=#f8cecc;strokeColor=#b85450;" parent="1" vertex="1">
          <mxGeometry x="70" y="2170" width="120" height="60" as="geometry" />
        </mxCell>
        <mxCell id="YP20tCKNDytelNwSjhOH-127" value="&lt;font style=&quot;font-size: 18px&quot;&gt;静态拓扑层&lt;/font&gt;" style="rounded=0;whiteSpace=wrap;html=1;fillColor=#f8cecc;strokeColor=#b85450;" parent="1" vertex="1">
          <mxGeometry x="70" y="2260" width="120" height="60" as="geometry" />
        </mxCell>
        <mxCell id="YP20tCKNDytelNwSjhOH-130" value="StreamGraph" style="rounded=1;whiteSpace=wrap;html=1;fillColor=#dae8fc;strokeColor=#6c8ebf;" parent="1" vertex="1">
          <mxGeometry x="240" y="2260" width="120" height="60" as="geometry" />
        </mxCell>
        <mxCell id="YP20tCKNDytelNwSjhOH-132" value="&lt;p&gt;&lt;/p&gt;&lt;div style=&quot;text-align: left&quot;&gt;&lt;span style=&quot;color: rgba(0 , 0 , 0 , 0.75) ; font-family: &amp;#34;microsoft yahei&amp;#34; , &amp;#34;sf pro display&amp;#34; , &amp;#34;roboto&amp;#34; , &amp;#34;noto&amp;#34; , &amp;#34;arial&amp;#34; , &amp;#34;pingfang sc&amp;#34; , sans-serif ; font-size: 18px ; background-color: rgb(255 , 255 , 255)&quot;&gt;StreamGraph的核心是一个StreamNode的拓扑图，StreamNode之间是通过StreamEdge连接。&lt;/span&gt;&lt;br&gt;&lt;/div&gt;&lt;p&gt;&lt;/p&gt;&lt;ul style=&quot;box-sizing: border-box ; outline: 0px ; margin: 0px 0px 24px ; padding: 0px ; list-style: none ; font-family: &amp;#34;microsoft yahei&amp;#34; , &amp;#34;sf pro display&amp;#34; , &amp;#34;roboto&amp;#34; , &amp;#34;noto&amp;#34; , &amp;#34;arial&amp;#34; , &amp;#34;pingfang sc&amp;#34; , sans-serif ; font-size: 18px ; overflow-wrap: break-word ; color: rgba(0 , 0 , 0 , 0.75) ; background-color: rgb(255 , 255 , 255)&quot;&gt;&lt;li&gt;&lt;/li&gt;&lt;/ul&gt;" style="text;html=1;align=center;verticalAlign=middle;resizable=0;points=[];autosize=1;" parent="1" vertex="1">
          <mxGeometry x="390" y="2290" width="770" height="60" as="geometry" />
        </mxCell>
        <mxCell id="YP20tCKNDytelNwSjhOH-133" value="从map了解源码" style="rounded=0;whiteSpace=wrap;html=1;" parent="1" vertex="1">
          <mxGeometry x="1330" y="1724" width="120" height="60" as="geometry" />
        </mxCell>
        <mxCell id="YP20tCKNDytelNwSjhOH-135" value="&lt;font style=&quot;font-size: 18px&quot;&gt;DataStream.map&lt;/font&gt;" style="text;html=1;strokeColor=none;fillColor=none;align=center;verticalAlign=middle;whiteSpace=wrap;rounded=0;" parent="1" vertex="1">
          <mxGeometry x="1390" y="1850" width="140" height="20" as="geometry" />
        </mxCell>
        <mxCell id="YP20tCKNDytelNwSjhOH-138" value="&lt;span style=&quot;font-size: 18px&quot;&gt;入参：MapFunction&amp;lt;T,R&amp;gt;&lt;/span&gt;" style="text;html=1;strokeColor=none;fillColor=none;align=center;verticalAlign=middle;whiteSpace=wrap;rounded=0;" parent="1" vertex="1">
          <mxGeometry x="1320" y="1960" width="460" height="20" as="geometry" />
        </mxCell>
        <mxCell id="YP20tCKNDytelNwSjhOH-141" value="&lt;span style=&quot;font-size: 18px&quot;&gt;出参：SingleOutputStreamOperator&amp;lt;T,R&amp;gt;&lt;/span&gt;" style="text;html=1;strokeColor=none;fillColor=none;align=center;verticalAlign=middle;whiteSpace=wrap;rounded=0;" parent="1" vertex="1">
          <mxGeometry x="1380" y="2010" width="460" height="20" as="geometry" />
        </mxCell>
        <mxCell id="YP20tCKNDytelNwSjhOH-143" value="&lt;span style=&quot;font-size: 18px&quot;&gt;作用：将DataStream中的数据一个个传入MapFunction，并返回单个数据流&lt;/span&gt;" style="text;html=1;strokeColor=none;fillColor=none;align=center;verticalAlign=middle;whiteSpace=wrap;rounded=0;" parent="1" vertex="1">
          <mxGeometry x="1450" y="1900" width="350" height="20" as="geometry" />
        </mxCell>
        <mxCell id="YP20tCKNDytelNwSjhOH-147" value="&lt;span style=&quot;font-size: 18px&quot;&gt;MapFunction为interface，T为入参类型，R为return Type&lt;/span&gt;" style="text;html=1;strokeColor=none;fillColor=none;align=center;verticalAlign=middle;whiteSpace=wrap;rounded=0;" parent="1" vertex="1">
          <mxGeometry x="1730" y="1960" width="460" height="20" as="geometry" />
        </mxCell>
        <mxCell id="YP20tCKNDytelNwSjhOH-149" value="&lt;span style=&quot;font-size: 18px&quot;&gt;DataStream的继承类&lt;/span&gt;" style="text;html=1;strokeColor=none;fillColor=none;align=center;verticalAlign=middle;whiteSpace=wrap;rounded=0;" parent="1" vertex="1">
          <mxGeometry x="1760" y="2010" width="460" height="20" as="geometry" />
        </mxCell>
        <mxCell id="YP20tCKNDytelNwSjhOH-150" value="&lt;span style=&quot;font-size: 18px&quot;&gt;TypeExctractor.getMapReturnTypes&lt;/span&gt;" style="text;html=1;strokeColor=none;fillColor=none;align=center;verticalAlign=middle;whiteSpace=wrap;rounded=0;" parent="1" vertex="1">
          <mxGeometry x="1330" y="2170" width="460" height="20" as="geometry" />
        </mxCell>
        <mxCell id="YP20tCKNDytelNwSjhOH-151" value="&lt;pre style=&quot;background-color: #2b2b2b ; color: #a9b7c6 ; font-family: &amp;#34;menlo&amp;#34; ; font-size: 12.0pt&quot;&gt;map(mapper&lt;span style=&quot;color: #cc7832&quot;&gt;, &lt;/span&gt;outType)&lt;/pre&gt;" style="text;html=1;align=center;verticalAlign=middle;resizable=0;points=[];autosize=1;" parent="1" vertex="1">
          <mxGeometry x="1570" y="2210" width="210" height="50" as="geometry" />
        </mxCell>
        <mxCell id="YP20tCKNDytelNwSjhOH-152" value="&lt;pre style=&quot;background-color: #2b2b2b ; color: #a9b7c6 ; font-family: &amp;#34;menlo&amp;#34; ; font-size: 12.0pt&quot;&gt;transform(&lt;span style=&quot;color: #6a8759&quot;&gt;&quot;Map&quot;&lt;/span&gt;&lt;span style=&quot;color: #cc7832&quot;&gt;, &lt;/span&gt;outputType&lt;span style=&quot;color: #cc7832&quot;&gt;, new &lt;/span&gt;StreamMap&amp;lt;&amp;gt;(clean(mapper)))&lt;span style=&quot;color: #cc7832&quot;&gt;;&lt;/span&gt;&lt;/pre&gt;" style="text;html=1;align=center;verticalAlign=middle;resizable=0;points=[];autosize=1;" parent="1" vertex="1">
          <mxGeometry x="1610" y="2255" width="600" height="50" as="geometry" />
        </mxCell>
        <mxCell id="YP20tCKNDytelNwSjhOH-153" value="&lt;pre style=&quot;background-color: #2b2b2b ; color: #a9b7c6 ; font-family: &amp;#34;menlo&amp;#34; ; font-size: 12.0pt&quot;&gt;doTransform(operatorName&lt;span style=&quot;color: #cc7832&quot;&gt;, &lt;/span&gt;outTypeInfo&lt;span style=&quot;color: #cc7832&quot;&gt;, &lt;/span&gt;SimpleOperatorFactory.&lt;span style=&quot;font-style: italic&quot;&gt;of&lt;/span&gt;(operator))&lt;/pre&gt;" style="text;html=1;align=center;verticalAlign=middle;resizable=0;points=[];autosize=1;" parent="1" vertex="1">
          <mxGeometry x="1640" y="2295" width="730" height="50" as="geometry" />
        </mxCell>
        <mxCell id="YP20tCKNDytelNwSjhOH-154" value="&lt;pre style=&quot;background-color: #2b2b2b ; color: #a9b7c6 ; font-family: &amp;#34;menlo&amp;#34; ; font-size: 12.0pt&quot;&gt;&lt;span style=&quot;color: #9876aa&quot;&gt;transformation&lt;/span&gt;.getOutputType()&lt;span style=&quot;color: #cc7832&quot;&gt;;&lt;/span&gt;&lt;/pre&gt;" style="text;html=1;align=center;verticalAlign=middle;resizable=0;points=[];autosize=1;" parent="1" vertex="1">
          <mxGeometry x="1690" y="2335" width="310" height="50" as="geometry" />
        </mxCell>
        <mxCell id="YP20tCKNDytelNwSjhOH-155" value="&lt;pre style=&quot;background-color: #2b2b2b ; color: #a9b7c6 ; font-family: &amp;#34;menlo&amp;#34; ; font-size: 12.0pt&quot;&gt;&lt;pre style=&quot;font-family: &amp;#34;menlo&amp;#34; ; font-size: 12pt&quot;&gt;OneInputTransformation&amp;lt;&lt;span style=&quot;color: #507874&quot;&gt;T&lt;/span&gt;&lt;span style=&quot;color: #cc7832&quot;&gt;, &lt;/span&gt;&lt;span style=&quot;color: #507874&quot;&gt;R&lt;/span&gt;&amp;gt; resultTransform = &lt;span style=&quot;color: #cc7832&quot;&gt;new &lt;/span&gt;OneInputTransformation&amp;lt;&amp;gt;(&lt;br&gt;  &lt;span style=&quot;color: #cc7832&quot;&gt;this&lt;/span&gt;.&lt;span style=&quot;color: #9876aa&quot;&gt;transformation&lt;/span&gt;&lt;span style=&quot;color: #cc7832&quot;&gt;,&lt;br&gt;&lt;/span&gt;&lt;span style=&quot;color: #cc7832&quot;&gt;  &lt;/span&gt;operatorName&lt;span style=&quot;color: #cc7832&quot;&gt;,&lt;br&gt;&lt;/span&gt;&lt;span style=&quot;color: #cc7832&quot;&gt;  &lt;/span&gt;operatorFactory&lt;span style=&quot;color: #cc7832&quot;&gt;,&lt;br&gt;&lt;/span&gt;&lt;span style=&quot;color: #cc7832&quot;&gt;  &lt;/span&gt;outTypeInfo&lt;span style=&quot;color: #cc7832&quot;&gt;,&lt;br&gt;&lt;/span&gt;&lt;span style=&quot;color: #cc7832&quot;&gt;  &lt;/span&gt;&lt;span style=&quot;color: #9876aa&quot;&gt;environment&lt;/span&gt;.getParallelism())&lt;span style=&quot;color: #cc7832&quot;&gt;;&lt;/span&gt;&lt;/pre&gt;&lt;/pre&gt;" style="text;html=1;align=center;verticalAlign=middle;resizable=0;points=[];autosize=1;" parent="1" vertex="1">
          <mxGeometry x="1690" y="2390" width="750" height="120" as="geometry" />
        </mxCell>
        <mxCell id="YP20tCKNDytelNwSjhOH-156" value="&lt;pre style=&quot;background-color: #2b2b2b ; color: #a9b7c6 ; font-family: &amp;#34;menlo&amp;#34; ; font-size: 12.0pt&quot;&gt;SingleOutputStreamOperator&amp;lt;&lt;span style=&quot;color: #507874&quot;&gt;R&lt;/span&gt;&amp;gt; returnStream = &lt;span style=&quot;color: #cc7832&quot;&gt;new &lt;/span&gt;SingleOutputStreamOperator(&lt;span style=&quot;color: #9876aa&quot;&gt;environment&lt;/span&gt;&lt;span style=&quot;color: #cc7832&quot;&gt;, &lt;/span&gt;resultTransform)&lt;span style=&quot;color: #cc7832&quot;&gt;;&lt;/span&gt;&lt;/pre&gt;" style="text;html=1;align=center;verticalAlign=middle;resizable=0;points=[];autosize=1;" parent="1" vertex="1">
          <mxGeometry x="1690" y="2505" width="1040" height="50" as="geometry" />
        </mxCell>
        <mxCell id="YP20tCKNDytelNwSjhOH-157" value="&lt;pre style=&quot;background-color: #2b2b2b ; color: #a9b7c6 ; font-family: &amp;#34;menlo&amp;#34; ; font-size: 12.0pt&quot;&gt;getExecutionEnvironment().addOperator(resultTransform)&lt;span style=&quot;color: #cc7832&quot;&gt;;&lt;/span&gt;&lt;/pre&gt;" style="text;html=1;align=center;verticalAlign=middle;resizable=0;points=[];autosize=1;" parent="1" vertex="1">
          <mxGeometry x="1685" y="2550" width="550" height="50" as="geometry" />
        </mxCell>
        <mxCell id="YP20tCKNDytelNwSjhOH-160" value="" style="edgeStyle=orthogonalEdgeStyle;curved=1;rounded=0;orthogonalLoop=1;jettySize=auto;html=1;" parent="1" source="YP20tCKNDytelNwSjhOH-158" target="YP20tCKNDytelNwSjhOH-159" edge="1">
          <mxGeometry relative="1" as="geometry" />
        </mxCell>
        <mxCell id="YP20tCKNDytelNwSjhOH-158" value="&lt;pre style=&quot;background-color: #2b2b2b ; color: #a9b7c6 ; font-family: &amp;#34;menlo&amp;#34; ; font-size: 12.0pt&quot;&gt;StreamExecutionEnvironment&lt;/pre&gt;" style="text;html=1;align=center;verticalAlign=middle;resizable=0;points=[];autosize=1;" parent="1" vertex="1">
          <mxGeometry x="1820" y="2600" width="270" height="50" as="geometry" />
        </mxCell>
        <mxCell id="YP20tCKNDytelNwSjhOH-159" value="&lt;pre style=&quot;background-color: #2b2b2b ; color: #a9b7c6 ; font-family: &amp;#34;menlo&amp;#34; ; font-size: 12.0pt&quot;&gt;List&amp;lt;Transformation&amp;lt;?&amp;gt;&amp;gt; &lt;span style=&quot;color: #9876aa&quot;&gt;transformations &lt;/span&gt;&lt;/pre&gt;" style="text;html=1;align=center;verticalAlign=middle;resizable=0;points=[];autosize=1;" parent="1" vertex="1">
          <mxGeometry x="2120" y="2600" width="400" height="50" as="geometry" />
        </mxCell>
        <mxCell id="YP20tCKNDytelNwSjhOH-161" value="&lt;pre style=&quot;background-color: #2b2b2b ; color: #a9b7c6 ; font-family: &amp;#34;menlo&amp;#34; ; font-size: 12.0pt&quot;&gt;env.execute&lt;/pre&gt;" style="text;html=1;align=center;verticalAlign=middle;resizable=0;points=[];autosize=1;" parent="1" vertex="1">
          <mxGeometry x="1390" y="2670" width="120" height="50" as="geometry" />
        </mxCell>
        <mxCell id="YP20tCKNDytelNwSjhOH-162" value="&lt;pre style=&quot;background-color: #2b2b2b ; color: #a9b7c6 ; font-family: &amp;#34;menlo&amp;#34; ; font-size: 12.0pt&quot;&gt;execute(getStreamGraph(jobName))&lt;span style=&quot;color: #cc7832&quot;&gt;;&lt;/span&gt;&lt;/pre&gt;" style="text;html=1;align=center;verticalAlign=middle;resizable=0;points=[];autosize=1;" parent="1" vertex="1">
          <mxGeometry x="1430" y="2715" width="330" height="50" as="geometry" />
        </mxCell>
        <mxCell id="YP20tCKNDytelNwSjhOH-163" value="&lt;pre style=&quot;background-color: #2b2b2b ; color: #a9b7c6 ; font-family: &amp;#34;menlo&amp;#34; ; font-size: 12.0pt&quot;&gt;getStreamGraph(jobName)&lt;/pre&gt;" style="text;html=1;align=center;verticalAlign=middle;resizable=0;points=[];autosize=1;" parent="1" vertex="1">
          <mxGeometry x="1885" y="2715" width="240" height="50" as="geometry" />
        </mxCell>
        <mxCell id="YP20tCKNDytelNwSjhOH-164" value="&lt;pre style=&quot;background-color: #2b2b2b ; color: #a9b7c6 ; font-family: &amp;#34;menlo&amp;#34; ; font-size: 12.0pt&quot;&gt;getStreamGraph(jobName&lt;span style=&quot;color: #cc7832&quot;&gt;, true&lt;/span&gt;)&lt;/pre&gt;" style="text;html=1;align=center;verticalAlign=middle;resizable=0;points=[];autosize=1;" parent="1" vertex="1">
          <mxGeometry x="2030" y="2760" width="290" height="50" as="geometry" />
        </mxCell>
        <mxCell id="YP20tCKNDytelNwSjhOH-165" value="&lt;pre style=&quot;background-color: #2b2b2b ; color: #a9b7c6 ; font-family: &amp;#34;menlo&amp;#34; ; font-size: 12.0pt&quot;&gt;StreamGraph streamGraph = getStreamGraphGenerator().setJobName(jobName).generate()&lt;span style=&quot;color: #cc7832&quot;&gt;;&lt;/span&gt;&lt;/pre&gt;" style="text;html=1;align=center;verticalAlign=middle;resizable=0;points=[];autosize=1;" parent="1" vertex="1">
          <mxGeometry x="2030" y="2800" width="820" height="50" as="geometry" />
        </mxCell>
        <mxCell id="YP20tCKNDytelNwSjhOH-166" value="&lt;pre style=&quot;background-color: #2b2b2b ; color: #a9b7c6 ; font-family: &amp;#34;menlo&amp;#34; ; font-size: 12.0pt&quot;&gt;StreamGraph &lt;span style=&quot;color: #ffc66d&quot;&gt;generate()&lt;/span&gt;&lt;/pre&gt;" style="text;html=1;align=center;verticalAlign=middle;resizable=0;points=[];autosize=1;" parent="1" vertex="1">
          <mxGeometry x="2900" y="2820" width="230" height="50" as="geometry" />
        </mxCell>
        <mxCell id="YP20tCKNDytelNwSjhOH-167" value="&lt;pre style=&quot;background-color: #2b2b2b ; color: #a9b7c6 ; font-family: &amp;#34;menlo&amp;#34; ; font-size: 12.0pt&quot;&gt;&lt;br&gt;&lt;/pre&gt;" style="text;html=1;align=center;verticalAlign=middle;resizable=0;points=[];autosize=1;" parent="1" vertex="1">
          <mxGeometry x="2920" y="2850" width="20" height="50" as="geometry" />
        </mxCell>
        <mxCell id="YP20tCKNDytelNwSjhOH-168" value="&lt;pre style=&quot;background-color: #2b2b2b ; color: #a9b7c6 ; font-family: &amp;#34;menlo&amp;#34; ; font-size: 12.0pt&quot;&gt;&lt;span style=&quot;color: #cc7832&quot;&gt;for &lt;/span&gt;(Transformation&amp;lt;?&amp;gt; transformation: &lt;span style=&quot;color: #9876aa&quot;&gt;transformations&lt;/span&gt;) {&lt;br&gt; transform(transformation)&lt;span style=&quot;color: #cc7832&quot;&gt;;&lt;br&gt;&lt;/span&gt;}&lt;/pre&gt;" style="text;html=1;align=center;verticalAlign=middle;resizable=0;points=[];autosize=1;" parent="1" vertex="1">
          <mxGeometry x="3010" y="2860" width="560" height="80" as="geometry" />
        </mxCell>
        <mxCell id="YP20tCKNDytelNwSjhOH-169" value="&lt;pre style=&quot;background-color: #2b2b2b ; color: #a9b7c6 ; font-family: &amp;#34;menlo&amp;#34; ; font-size: 12.0pt&quot;&gt;transformedIds = transformOneInputTransform((OneInputTransformation&amp;lt;?&lt;span style=&quot;color: #cc7832&quot;&gt;, &lt;/span&gt;?&amp;gt;) transform)&lt;span style=&quot;color: #cc7832&quot;&gt;;&lt;/span&gt;&lt;/pre&gt;" style="text;html=1;align=center;verticalAlign=middle;resizable=0;points=[];autosize=1;" parent="1" vertex="1">
          <mxGeometry x="3010" y="2940" width="840" height="50" as="geometry" />
        </mxCell>
        <mxCell id="YP20tCKNDytelNwSjhOH-170" value="&lt;span style=&quot;background-color: rgb(43 , 43 , 43) ; color: rgb(169 , 183 , 198) ; font-family: &amp;#34;menlo&amp;#34; ; font-size: 12pt&quot;&gt;入参：OneInputTransformation&amp;lt;&lt;/span&gt;&lt;span style=&quot;font-family: &amp;#34;menlo&amp;#34; ; font-size: 12pt ; color: rgb(80 , 120 , 116)&quot;&gt;IN&lt;/span&gt;&lt;span style=&quot;font-family: &amp;#34;menlo&amp;#34; ; font-size: 12pt ; color: rgb(204 , 120 , 50)&quot;&gt;, &lt;/span&gt;&lt;span style=&quot;font-family: &amp;#34;menlo&amp;#34; ; font-size: 12pt ; color: rgb(80 , 120 , 116)&quot;&gt;OUT&lt;/span&gt;&lt;span style=&quot;background-color: rgb(43 , 43 , 43) ; color: rgb(169 , 183 , 198) ; font-family: &amp;#34;menlo&amp;#34; ; font-size: 12pt&quot;&gt;&amp;gt; transform&lt;/span&gt;" style="text;html=1;align=center;verticalAlign=middle;resizable=0;points=[];autosize=1;" parent="1" vertex="1">
          <mxGeometry x="3080" y="3000" width="460" height="20" as="geometry" />
        </mxCell>
        <mxCell id="YP20tCKNDytelNwSjhOH-171" value="&lt;pre style=&quot;background-color: #2b2b2b ; color: #a9b7c6 ; font-family: &amp;#34;menlo&amp;#34; ; font-size: 12.0pt&quot;&gt;出参：&amp;lt;IN&lt;span style=&quot;color: #cc7832&quot;&gt;, &lt;/span&gt;OUT&amp;gt; &lt;/pre&gt;" style="text;html=1;align=center;verticalAlign=middle;resizable=0;points=[];autosize=1;" parent="1" vertex="1">
          <mxGeometry x="3080" y="3020" width="160" height="50" as="geometry" />
        </mxCell>
        <mxCell id="YP20tCKNDytelNwSjhOH-172" value="&lt;pre style=&quot;background-color: #2b2b2b ; color: #a9b7c6 ; font-family: &amp;#34;menlo&amp;#34; ; font-size: 12.0pt&quot;&gt;Collection&amp;lt;Integer&amp;gt; inputIds = transform(transform.getInput())&lt;span style=&quot;color: #cc7832&quot;&gt;;&lt;/span&gt;&lt;/pre&gt;" style="text;html=1;align=center;verticalAlign=middle;resizable=0;points=[];autosize=1;" parent="1" vertex="1">
          <mxGeometry x="3080" y="3080" width="620" height="50" as="geometry" />
        </mxCell>
        <mxCell id="YP20tCKNDytelNwSjhOH-173" value="这边递归进行操作" style="text;html=1;align=center;verticalAlign=middle;resizable=0;points=[];autosize=1;" parent="1" vertex="1">
          <mxGeometry x="3080" y="3070" width="110" height="20" as="geometry" />
        </mxCell>
        <mxCell id="YP20tCKNDytelNwSjhOH-177" value="&lt;span style=&quot;color: rgba(0 , 0 , 0 , 0.75) ; font-family: &amp;#34;microsoft yahei&amp;#34; , &amp;#34;sf pro display&amp;#34; , &amp;#34;roboto&amp;#34; , &amp;#34;noto&amp;#34; , &amp;#34;arial&amp;#34; , &amp;#34;pingfang sc&amp;#34; , sans-serif ; font-size: 18px ; text-align: left ; background-color: rgb(255 , 255 , 255)&quot;&gt;StreamNode的核心组件是：operator、inEdges、outEdges&lt;/span&gt;" style="text;html=1;align=center;verticalAlign=middle;resizable=0;points=[];autosize=1;" parent="1" vertex="1">
          <mxGeometry x="275" y="2360" width="490" height="20" as="geometry" />
        </mxCell>
        <mxCell id="YP20tCKNDytelNwSjhOH-178" value="&lt;pre style=&quot;background-color: #2b2b2b ; color: #a9b7c6 ; font-family: &amp;#34;menlo&amp;#34; ; font-size: 12.0pt&quot;&gt;&lt;span style=&quot;color: #9876aa&quot;&gt;streamGraph&lt;/span&gt;.addOperator(transform.getId()&lt;span style=&quot;color: #cc7832&quot;&gt;,&lt;br&gt;&lt;/span&gt;&lt;span style=&quot;color: #cc7832&quot;&gt;  &lt;/span&gt;slotSharingGroup&lt;span style=&quot;color: #cc7832&quot;&gt;,&lt;br&gt;&lt;/span&gt;&lt;span style=&quot;color: #cc7832&quot;&gt;  &lt;/span&gt;transform.getCoLocationGroupKey()&lt;span style=&quot;color: #cc7832&quot;&gt;,&lt;br&gt;&lt;/span&gt;&lt;span style=&quot;color: #cc7832&quot;&gt;  &lt;/span&gt;transform.getOperatorFactory()&lt;span style=&quot;color: #cc7832&quot;&gt;,&lt;br&gt;&lt;/span&gt;&lt;span style=&quot;color: #cc7832&quot;&gt;  &lt;/span&gt;transform.getInputType()&lt;span style=&quot;color: #cc7832&quot;&gt;,&lt;br&gt;&lt;/span&gt;&lt;span style=&quot;color: #cc7832&quot;&gt;  &lt;/span&gt;transform.getOutputType()&lt;span style=&quot;color: #cc7832&quot;&gt;,&lt;br&gt;&lt;/span&gt;&lt;span style=&quot;color: #cc7832&quot;&gt;  &lt;/span&gt;transform.getName())&lt;span style=&quot;color: #cc7832&quot;&gt;;&lt;/span&gt;&lt;/pre&gt;" style="text;html=1;align=center;verticalAlign=middle;resizable=0;points=[];autosize=1;" parent="1" vertex="1">
          <mxGeometry x="1030" y="2350" width="420" height="140" as="geometry" />
        </mxCell>
        <mxCell id="YP20tCKNDytelNwSjhOH-179" value="&lt;span style=&quot;color: rgba(0 , 0 , 0 , 0.75) ; font-family: &amp;#34;microsoft yahei&amp;#34; , &amp;#34;sf pro display&amp;#34; , &amp;#34;roboto&amp;#34; , &amp;#34;noto&amp;#34; , &amp;#34;arial&amp;#34; , &amp;#34;pingfang sc&amp;#34; , sans-serif ; font-size: 18px ; background-color: rgb(255 , 255 , 255)&quot;&gt;&amp;nbsp;Operator则是StreamOperator的实例，封装了UserDefineFunction和算子本身state，&lt;br&gt;以及提供管理自定义state 、Channel的接口。&lt;/span&gt;" style="text;html=1;align=left;verticalAlign=middle;resizable=0;points=[];autosize=1;" parent="1" vertex="1">
          <mxGeometry x="311" y="2400" width="690" height="40" as="geometry" />
        </mxCell>
        <mxCell id="YP20tCKNDytelNwSjhOH-180" value="&lt;span style=&quot;color: rgba(0 , 0 , 0 , 0.75) ; font-family: &amp;#34;microsoft yahei&amp;#34; , &amp;#34;sf pro display&amp;#34; , &amp;#34;roboto&amp;#34; , &amp;#34;noto&amp;#34; , &amp;#34;arial&amp;#34; , &amp;#34;pingfang sc&amp;#34; , sans-serif ; font-size: 18px ; background-color: rgb(255 , 255 , 255)&quot;&gt;inEdges和outEdges是StreamEdge的实列用于把Connector各个StreamNode，&lt;br&gt;构成整个执行拓扑图。&lt;/span&gt;" style="text;html=1;align=left;verticalAlign=middle;resizable=0;points=[];autosize=1;" parent="1" vertex="1">
          <mxGeometry x="311" y="2465" width="640" height="40" as="geometry" />
        </mxCell>
        <mxCell id="YP20tCKNDytelNwSjhOH-181" value="&lt;pre style=&quot;background-color: #2b2b2b ; color: #a9b7c6 ; font-family: &amp;#34;menlo&amp;#34; ; font-size: 12.0pt&quot;&gt;&lt;span style=&quot;color: #9876aa&quot;&gt;streamGraph&lt;/span&gt;.addEdge(inputId&lt;span style=&quot;color: #cc7832&quot;&gt;, &lt;/span&gt;transform.getId()&lt;span style=&quot;color: #cc7832&quot;&gt;, &lt;/span&gt;&lt;span style=&quot;color: #6897bb&quot;&gt;0&lt;/span&gt;)&lt;span style=&quot;color: #cc7832&quot;&gt;;&lt;/span&gt;&lt;/pre&gt;" style="text;html=1;align=center;verticalAlign=middle;resizable=0;points=[];autosize=1;" parent="1" vertex="1">
          <mxGeometry x="1030" y="2505" width="510" height="50" as="geometry" />
        </mxCell>
        <mxCell id="YP20tCKNDytelNwSjhOH-182" value="&lt;pre style=&quot;background-color: #2b2b2b ; color: #a9b7c6 ; font-family: &amp;#34;menlo&amp;#34; ; font-size: 12.0pt&quot;&gt;&lt;span style=&quot;color: #ffc66d&quot;&gt;addEdge&lt;/span&gt;(Integer upStreamVertexID&lt;span style=&quot;color: #cc7832&quot;&gt;, &lt;/span&gt;Integer downStreamVertexID&lt;span style=&quot;color: #cc7832&quot;&gt;, int &lt;/span&gt;typeNumber)&lt;/pre&gt;" style="text;html=1;align=center;verticalAlign=middle;resizable=0;points=[];autosize=1;" parent="1" vertex="1">
          <mxGeometry x="1030" y="2530" width="760" height="50" as="geometry" />
        </mxCell>
        <mxCell id="YP20tCKNDytelNwSjhOH-183" value="&lt;span style=&quot;color: rgba(0 , 0 , 0 , 0.75) ; font-family: &amp;#34;microsoft yahei&amp;#34; , &amp;#34;sf pro display&amp;#34; , &amp;#34;roboto&amp;#34; , &amp;#34;noto&amp;#34; , &amp;#34;arial&amp;#34; , &amp;#34;pingfang sc&amp;#34; , sans-serif ; font-size: 18px ; background-color: rgb(255 , 255 , 255)&quot;&gt;StreamEdge包括source和target 分别用于指向源和目标的StreamNode,&lt;br&gt;此外SteamEdge还包括select的Names列表、分区选择器outputPartitioner，以及outputTag。&lt;/span&gt;" style="text;html=1;align=left;verticalAlign=middle;resizable=0;points=[];autosize=1;" parent="1" vertex="1">
          <mxGeometry x="275" y="2540" width="750" height="40" as="geometry" />
        </mxCell>
        <mxCell id="YP20tCKNDytelNwSjhOH-184" value="&lt;font style=&quot;font-size: 18px&quot;&gt;JobGraph层&lt;/font&gt;" style="rounded=0;whiteSpace=wrap;html=1;fillColor=#f8cecc;strokeColor=#b85450;" parent="1" vertex="1">
          <mxGeometry x="70" y="2620" width="120" height="60" as="geometry" />
        </mxCell>
        <mxCell id="YP20tCKNDytelNwSjhOH-185" value="&lt;span style=&quot;color: rgb(77 , 77 , 77) ; font-family: &amp;#34;microsoft yahei&amp;#34; , &amp;#34;sf pro display&amp;#34; , &amp;#34;roboto&amp;#34; , &amp;#34;noto&amp;#34; , &amp;#34;arial&amp;#34; , &amp;#34;pingfang sc&amp;#34; , sans-serif ; font-size: 18px ; text-align: left ; background-color: rgb(255 , 255 , 255)&quot;&gt;jobGraph是唯一能被Flink引擎所识别的表述作业的数据结构，也正是这一共同的抽象为Flink批量统一奠定了基础。&lt;/span&gt;" style="text;html=1;align=center;verticalAlign=middle;resizable=0;points=[];autosize=1;" parent="1" vertex="1">
          <mxGeometry x="240" y="2660" width="920" height="20" as="geometry" />
        </mxCell>
        <mxCell id="YP20tCKNDytelNwSjhOH-186" value="&lt;span style=&quot;color: rgb(77 , 77 , 77) ; font-family: &amp;#34;microsoft yahei&amp;#34; , &amp;#34;sf pro display&amp;#34; , &amp;#34;roboto&amp;#34; , &amp;#34;noto&amp;#34; , &amp;#34;arial&amp;#34; , &amp;#34;pingfang sc&amp;#34; , sans-serif ; font-size: 18px ; background-color: rgb(255 , 255 , 255)&quot;&gt;相比于StreamGraph和OptimizedPlan这些静态的拓扑图JobGraph加入了中间结果集（IntermediateDataSet）&lt;br&gt;使其赋予了动态的特性，就像流水一样源源不断流淌。&lt;/span&gt;" style="text;html=1;align=left;verticalAlign=middle;resizable=0;points=[];autosize=1;" parent="1" vertex="1">
          <mxGeometry x="240" y="2700" width="880" height="40" as="geometry" />
        </mxCell>
        <mxCell id="YP20tCKNDytelNwSjhOH-187" value="&lt;span style=&quot;color: rgb(77 , 77 , 77) ; font-family: &amp;#34;microsoft yahei&amp;#34; , &amp;#34;sf pro display&amp;#34; , &amp;#34;roboto&amp;#34; , &amp;#34;noto&amp;#34; , &amp;#34;arial&amp;#34; , &amp;#34;pingfang sc&amp;#34; , sans-serif ; font-size: 18px ; background-color: rgb(255 , 255 , 255)&quot;&gt;JobGraph是由顶点（JobVertex）、作业边（JobEdge）以及中间结果集（IntermediateDataSet）三个基本的元素组成。&lt;br&gt;其中JobEdge和IntermediateDateSet都是多个Vertex之间的连接的纽带，分别代表顶点的input和result。&lt;/span&gt;" style="text;html=1;align=left;verticalAlign=middle;resizable=0;points=[];autosize=1;" parent="1" vertex="1">
          <mxGeometry x="290" y="2770" width="970" height="40" as="geometry" />
        </mxCell>
        <mxCell id="YP20tCKNDytelNwSjhOH-188" value="&lt;span style=&quot;color: rgb(77 , 77 , 77) ; font-family: &amp;#34;microsoft yahei&amp;#34; , &amp;#34;sf pro display&amp;#34; , &amp;#34;roboto&amp;#34; , &amp;#34;noto&amp;#34; , &amp;#34;arial&amp;#34; , &amp;#34;pingfang sc&amp;#34; , sans-serif ; font-size: 18px ; text-align: left ; background-color: rgb(255 , 255 , 255)&quot;&gt;一个JobVertex关联着若干个JobEdge作为输入端以及若干个IntermediateDataSet作为其产生的结果集合。&lt;/span&gt;" style="text;html=1;align=center;verticalAlign=middle;resizable=0;points=[];autosize=1;" parent="1" vertex="1">
          <mxGeometry x="330" y="2835" width="850" height="20" as="geometry" />
        </mxCell>
        <mxCell id="YP20tCKNDytelNwSjhOH-189" value="&lt;span style=&quot;color: rgb(77 , 77 , 77) ; font-family: &amp;#34;microsoft yahei&amp;#34; , &amp;#34;sf pro display&amp;#34; , &amp;#34;roboto&amp;#34; , &amp;#34;noto&amp;#34; , &amp;#34;arial&amp;#34; , &amp;#34;pingfang sc&amp;#34; , sans-serif ; font-size: 18px ; text-align: left ; background-color: rgb(255 , 255 , 255)&quot;&gt;一个JobEdge关联着一个IntermeidateDataSet作为其数据源和一个JobVertex作为其消费者&lt;/span&gt;" style="text;html=1;align=center;verticalAlign=middle;resizable=0;points=[];autosize=1;" parent="1" vertex="1">
          <mxGeometry x="320" y="2880" width="730" height="20" as="geometry" />
        </mxCell>
        <mxCell id="YP20tCKNDytelNwSjhOH-190" value="&lt;span style=&quot;color: rgb(77 , 77 , 77) ; font-family: &amp;#34;microsoft yahei&amp;#34; , &amp;#34;sf pro display&amp;#34; , &amp;#34;roboto&amp;#34; , &amp;#34;noto&amp;#34; , &amp;#34;arial&amp;#34; , &amp;#34;pingfang sc&amp;#34; , sans-serif ; font-size: 18px ; text-align: left ; background-color: rgb(255 , 255 , 255)&quot;&gt;一个IntermediateDataSet关联着一个Vertex作为其生产者，和若干的JobEdge作为其消费者&lt;/span&gt;" style="text;html=1;align=center;verticalAlign=middle;resizable=0;points=[];autosize=1;" parent="1" vertex="1">
          <mxGeometry x="330" y="2930" width="730" height="20" as="geometry" />
        </mxCell>
        <mxCell id="YP20tCKNDytelNwSjhOH-191" value="&lt;pre style=&quot;background-color: #2b2b2b ; color: #a9b7c6 ; font-family: &amp;#34;menlo&amp;#34; ; font-size: 12.0pt&quot;&gt; &lt;span style=&quot;color: #cc7832&quot;&gt;this&lt;/span&gt;.getJobGraph(pipeline&lt;span style=&quot;color: #cc7832&quot;&gt;, &lt;/span&gt;effectiveConfig)&lt;span style=&quot;color: #cc7832&quot;&gt;;&lt;/span&gt;&lt;/pre&gt;" style="text;html=1;align=center;verticalAlign=middle;resizable=0;points=[];autosize=1;" parent="1" vertex="1">
          <mxGeometry x="230" y="3020" width="450" height="50" as="geometry" />
        </mxCell>
        <mxCell id="YP20tCKNDytelNwSjhOH-192" value="&lt;pre style=&quot;background-color: #2b2b2b ; color: #a9b7c6 ; font-family: &amp;#34;menlo&amp;#34; ; font-size: 12.0pt&quot;&gt;LocalExecutor&lt;/pre&gt;" style="text;html=1;align=center;verticalAlign=middle;resizable=0;points=[];autosize=1;" parent="1" vertex="1">
          <mxGeometry x="230" y="2980" width="140" height="50" as="geometry" />
        </mxCell>
      </root>
    </mxGraphModel>
  </diagram>
</mxfile>
